<svg width="70" height="32" viewBox="0 0 70 32" fill="none" xmlns="http://www.w3.org/2000/svg">
<path d="M23.5966 16.0504C23.5966 12.3193 22.3193 10.1681 18.7227 10.1681C16.605 10.1681 14.9244 11.1092 13.8151 12.7227C13.2101 11.042 11.7983 10.1681 9.37815 10.1681C7.2605 10.1681 5.78151 11.1429 4.90756 12.8235V10.5378H0V26H4.90756V16.5882C4.90756 14.7059 5.84874 13.7647 7.19328 13.7647C8.57143 13.7647 9.14286 14.7395 9.14286 16.5882V26H14.2521V16.5882C14.2521 14.7059 15.1933 13.7647 16.5378 13.7647C17.916 13.7647 18.4874 14.7395 18.4874 16.5882V26H23.5966V16.0504Z" fill="#282810"/>
<path d="M27.271 4.7563C27.271 6.36975 28.5819 7.47899 30.229 7.47899C31.876 7.47899 33.187 6.36975 33.187 4.7563C33.187 3.14286 31.876 2 30.229 2C28.5819 2 27.271 3.14286 27.271 4.7563ZM27.7416 10.5378V26H32.6828V10.5378H27.7416Z" fill="#282810"/>
<path d="M46.9136 16.5882V26H52.2245V16.0504C52.2245 12.3529 50.5102 10.1681 46.6783 10.1681C44.3926 10.1681 42.88 11.1765 41.9724 12.8571V10.5378H36.8632V26H41.9724V16.5882C41.9724 14.7731 43.0481 13.7647 44.6615 13.7647C46.3086 13.7647 46.9136 14.7731 46.9136 16.5882Z" fill="#282810"/>
<path d="M54.3823 20.2185H61.542V15.8151H54.3823V20.2185Z" fill="#282810"/>
<path d="M63.3464 4.7563C63.3464 6.36975 64.6573 7.47899 66.3044 7.47899C67.9514 7.47899 69.2623 6.36975 69.2623 4.7563C69.2623 3.14286 67.9514 2 66.3044 2C64.6573 2 63.3464 3.14286 63.3464 4.7563ZM63.817 10.5378V26H68.7581V10.5378H63.817Z" fill="#18E0D8"/>
</svg>
